<mxfile host="app.diagrams.net" modified="2020-12-22T16:00:58.675Z" agent="5.0 (X11; Linux x86_64) AppleWebKit/537.36 (KHTML, like Gecko) Chrome/87.0.4280.88 Safari/537.36" etag="-WyWBAe0Zl6HUsekkHQv" version="14.0.4" type="github">
  <diagram id="-U440HQlRACzYzU_ByMU" name="Page-1">
    <mxGraphModel dx="1355" dy="778" grid="1" gridSize="10" guides="1" tooltips="1" connect="1" arrows="1" fold="1" page="1" pageScale="1" pageWidth="850" pageHeight="1100" math="0" shadow="0">
      <root>
        <mxCell id="0" />
        <mxCell id="1" parent="0" />
        <mxCell id="5mO6NLcmnmaT-guXEoqL-1" value="Hello world" style="whiteSpace=wrap;html=1;aspect=fixed;" vertex="1" parent="1">
          <mxGeometry x="380" y="360" width="80" height="80" as="geometry" />
        </mxCell>
      </root>
    </mxGraphModel>
  </diagram>
</mxfile>
